<svg width="834" height="744" viewBox="0 0 834 744" fill="none" xmlns="http://www.w3.org/2000/svg">
<path d="M833.83 494.15C830.53 493.41 827.17 493.18 823.8 493.1C820.25 493.01 816.72 492.81 813.19 492.47C809.16 492.08 805.09 492.17 801.04 491.93C792.11 491.42 783.17 490.83 774.24 490.27C773.73 490.24 773.23 490.18 772.72 490.15C764.46 489.7 756.19 489.28 747.93 488.79C739.84 488.31 731.75 487.76 723.66 487.24C723.15 487.21 722.65 487.15 722.14 487.13C713.88 486.68 705.61 486.24 697.35 485.77C694.65 485.62 691.96 485.36 689.27 485.19C686.24 485 683.2 484.85 680.17 484.69C679.66 484.66 679.15 484.7 678.65 484.66C671.74 484.19 664.84 483.72 657.93 483.25C656.41 483.15 654.9 483.05 653.38 482.95C643.77 482.33 634.17 481.72 624.56 481.1C622.03 480.94 619.55 480.51 617.07 479.94C600.44 476.18 583.8 472.53 567.16 468.81C551.18 465.24 535.22 461.6 519.24 458.07C507.54 455.48 495.83 452.95 484.1 450.5C471.38 447.85 458.7 445.02 446.06 442.01C438.67 440.25 431.27 438.58 423.8 437.21C423.47 437.15 423.17 436.98 422.83 436.87C422.34 436.84 421.87 436.85 421.41 436.76C420.9 436.66 420.76 436.76 421.04 437.11C421.11 437.19 421.35 437.17 421.5 437.14C421.97 437.06 422.43 436.96 422.89 436.87C423.18 437.49 423.49 438.06 424.23 438.26C427.16 439.05 430.07 439.93 433.02 440.64C444.01 443.28 455.03 445.82 466.02 448.46C483.91 452.76 501.79 457.06 519.66 461.43C548.85 468.56 578.02 475.75 607.2 482.9C610.81 483.78 614.45 484.5 618.07 485.32C619.39 485.62 620.71 485.94 621.97 486.38C622.34 486.51 622.73 487.1 622.79 487.52C623.14 490.06 622.78 492.59 622.39 495.08C620.64 506.25 618.68 517.39 617.05 528.58C615.86 536.77 614.18 544.88 613.39 553.12C613.31 553.96 613.11 554.78 612.92 555.6C612.61 556.91 611.88 557.5 610.42 557.7C597.89 559.49 585.34 561.24 572.82 563.09C562.8 564.57 552.8 566.19 542.79 567.7C532.77 569.21 522.75 570.64 512.73 572.17C502.88 573.67 493.05 575.26 483.21 576.77C475.37 577.97 467.51 579.07 459.66 580.26C451.81 581.45 443.98 582.72 436.14 583.89C428.12 585.09 420.1 586.19 412.08 587.36C403.89 588.56 395.72 589.8 387.53 591C379.85 592.12 372.15 593.19 364.47 594.31C358.62 595.16 352.79 596.08 346.94 596.93C344.1 597.34 341.26 597.69 338.41 598.05C337.79 598.13 337.06 597.48 337.09 596.81C337.23 593.78 337.29 590.74 337.6 587.72C338.27 581.17 339.04 574.63 339.34 568.05C339.58 562.82 340.09 557.61 340.56 552.39C341.13 546 341.84 539.62 342.37 533.23C343.11 524.48 343.69 515.72 344.43 506.97C344.84 502.09 345.48 497.23 345.97 492.36C346.46 487.49 346.89 482.61 347.33 477.73C347.81 472.52 348.27 467.31 348.75 462.1C348.92 460.26 349.05 458.43 348.78 455.64C347.36 463.04 346.55 469.55 345.87 476.08C345.45 480.11 344.84 484.11 344.34 488.13C343.86 491.98 343.43 495.84 342.97 499.7C342 507.74 341.37 515.83 340.2 523.85C339.56 528.19 339.28 532.58 338.82 536.95C338.48 540.14 338.14 543.33 337.76 546.52C337.26 550.71 336.72 554.9 336.22 559.09C335.78 562.78 335.38 566.47 334.99 570.16C334.19 577.72 333.42 585.27 332.63 592.83C332.58 593.33 332.55 593.84 332.46 594.34C331.54 599.07 332.2 598.91 327.57 601.19C318.64 605.6 309.69 609.98 300.75 614.38C298.33 615.57 295.84 616.6 293.7 618.33C292.81 619.06 291.62 619.44 290.56 619.96C253.43 638.2 216.3 656.45 179.17 674.68C133.7 697 88.22 719.31 42.74 741.62C41.09 742.43 39.53 743.49 37.72 743.68C36.64 742.77 36.38 741.6 35.97 740.5C31.61 728.79 27.23 717.1 22.88 705.39C16.3 687.67 9.72999 669.94 3.16999 652.21C2.28999 649.84 1.38999 647.47 0.64999 645.05C0.38999 644.19 -0.550009 643.06 0.49999 642.31C1.17999 641.82 2.05999 642.62 2.78999 643.03C9.84999 647 16.93 650.96 23.98 654.95C41.48 664.83 58.98 674.72 76.47 684.62C83.67 688.7 90.82 692.86 97.47 697.83C98.94 698.93 100.61 699.78 102.22 700.68C102.39 700.78 102.8 700.5 103.07 700.34C103.13 700.31 103.1 700.02 103.02 699.9C102.75 699.48 102.51 699.02 102.15 698.69C100.9 697.55 99.58 696.49 98.34 695.35C96.85 693.98 95.36 692.6 93.97 691.13C92.09 689.14 92.12 688.56 94.03 686.46C99.93 679.96 106.05 673.65 112.23 667.41C119.84 659.73 127.57 652.16 134.87 644.18C144 634.2 153.84 624.93 163.19 615.17C172.42 605.53 181.91 596.15 191.27 586.63C210.45 567.11 229.64 547.6 248.79 528.04C255.64 521.04 262.36 513.91 269.14 506.84C269.96 505.99 270.78 505.14 271.61 504.3C280.29 495.54 288.99 486.8 297.53 477.91C311.81 463.05 326.21 448.31 340.99 433.93C343.41 431.57 345.79 429.17 348.13 426.74C349.42 425.4 350.61 423.98 351.82 422.57C352.72 421.53 352.62 420.34 352.02 419.26C351.37 418.08 350.56 416.99 349.76 415.9C343.68 407.58 337.56 399.29 331.51 390.95C309.99 361.28 288.47 331.61 266.99 301.91C260.55 293.01 254.23 284.04 247.85 275.11C246.38 273.05 244.89 271 243.4 268.95C237.62 261.04 231.75 253.2 226.08 245.2C211.92 225.22 197.53 205.4 183.12 185.59C166.23 162.37 149.52 139.01 132.71 115.74C112.63 87.94 92.53 60.16 72.44 32.38C66.3 23.91 60.13 15.45 54 6.95999C52.81 5.31999 51.72 3.60999 50.6 1.91999C50.19 1.29999 50.29 0.63999 50.57 -9.76585e-06L50.48 -0.0100098C59.65 5.37999 68.81 10.78 77.99 16.15C150.02 58.25 222.04 100.38 294.1 142.43C314.38 154.26 334.81 165.82 355.13 177.57C382.76 193.55 410.36 209.59 437.97 225.6C441.18 227.46 444.4 229.33 447.59 231.23C448.45 231.74 449.3 232.32 450.04 233C450.35 233.29 450.48 233.9 450.47 234.37C450.47 234.85 450.27 235.37 450.05 235.81C449.16 237.63 448.27 239.45 447.3 241.23C420.69 289.62 394.77 338.37 368.41 386.89C365.67 391.93 362.9 396.96 360.14 402C359.65 402.89 359.11 403.76 359.26 404.85C358.18 405.43 358.47 406.3 358.76 407.17L358.4 407.09L358.64 407.27C358.98 406.46 359.5 405.69 359.13 404.74C359.44 404.65 359.89 404.66 360.03 404.46C361.09 402.94 362.16 401.42 363.09 399.82C369.05 389.61 374.95 379.37 380.91 369.15C404.98 327.85 429.05 286.56 453.15 245.28C454.25 243.4 455.03 241.31 456.6 239.72C456.89 239.42 457.74 239.4 457.97 239.71C458.17 239.98 458.41 240.22 458.57 240.51C459.27 241.86 459.95 243.22 460.61 244.59C474.49 273.14 488.36 301.7 502.24 330.25C508.81 343.77 515.43 357.26 521.99 370.78C523.32 373.51 524.5 376.32 525.73 379.09C525.93 379.55 526.08 380.04 526.24 380.52C526.42 381.07 525.95 382.01 525.37 382.15C522.09 382.95 518.82 383.77 515.52 384.51C487.7 390.82 459.87 397.12 432.05 403.42C423.98 405.25 415.92 407.08 407.86 408.93C406.88 409.15 405.9 409.44 404.94 409.72C404.2 409.93 403.47 410.19 402.51 410.5C403.11 410.64 403.45 410.82 403.74 410.77C411.39 409.45 419.04 408.15 426.68 406.77C432.83 405.66 438.97 404.5 445.1 403.31C451.23 402.12 457.35 400.87 463.48 399.66C473.08 397.76 482.68 395.81 492.3 393.98C506.23 391.33 520.18 388.76 534.12 386.17C544.08 384.32 554.05 382.54 564 380.65C573.12 378.92 582.22 377.07 591.34 375.3C601.12 373.41 610.91 371.55 620.69 369.67C626.66 368.52 632.62 367.36 638.59 366.2C639.42 366.04 640.24 365.81 641.07 365.7C642.62 365.48 644.11 365.7 645.47 366.52C646.62 367.22 647.78 367.92 648.9 368.68C693.08 398.34 737.26 428 781.43 457.69C796.29 467.68 811.1 477.76 825.92 487.8C827.32 488.75 828.66 489.78 830.1 490.67C831.37 491.46 832.33 492.71 833.84 493.13C833.83 493.47 833.83 493.81 833.83 494.15Z" fill="url(#paint0_linear_18_112)"/>
<defs>
<linearGradient id="paint0_linear_18_112" x1="416.927" y1="-0.0100098" x2="416.927" y2="743.68" gradientUnits="userSpaceOnUse">
<stop stop-color="#BE0506"/>
<stop offset="1" stop-color="#580203"/>
</linearGradient>
</defs>
</svg>
